<svg width="20" height="20" viewBox="0 0 20 20" fill="none" xmlns="http://www.w3.org/2000/svg">
<g clip-path="url(#clip0_17_22)">
<path d="M18.3333 4.76667L14.5 1.55L13.425 2.825L17.2583 6.04167L18.3333 4.76667ZM6.56666 2.825L5.5 1.55L1.66666 4.75833L2.74166 6.03333L6.56666 2.825ZM10.4167 6.66667H9.16666V11.6667L13.125 14.0417L13.75 13.0167L10.4167 11.0417V6.66667ZM10 3.33333C5.85833 3.33333 2.5 6.69167 2.5 10.8333C2.5 14.975 5.85 18.3333 10 18.3333C14.1417 18.3333 17.5 14.975 17.5 10.8333C17.5 6.69167 14.1417 3.33333 10 3.33333ZM10 16.6667C6.775 16.6667 4.16666 14.0583 4.16666 10.8333C4.16666 7.60833 6.775 5 10 5C13.225 5 15.8333 7.60833 15.8333 10.8333C15.8333 14.0583 13.225 16.6667 10 16.6667Z" fill="white"/>
</g>
<defs>
<clipPath id="clip0_17_22">
<rect width="20" height="20" fill="white"/>
</clipPath>
</defs>
</svg>
